<?xml version="1.0" encoding="iso-8859-1"?>
<!-- Generator: Adobe Illustrator 19.0.0, SVG Export Plug-In . SVG Version: 6.00 Build 0)  -->
<svg version="1.1" id="Capa_1" xmlns="http://www.w3.org/2000/svg" xmlns:xlink="http://www.w3.org/1999/xlink" x="0px" y="0px"
	 viewBox="0 0 480 480" style="enable-background:new 0 0 480 480;" xml:space="preserve">
<g>
	<g>
		<g>
			<path d="M480,122.324v-96c0-13.255-10.745-24-24-24H24c-13.255,0-24,10.745-24,24v96c-0.001,13.115,10.526,23.803,23.64,24
				l0.064,0.096l175.984,175.904H24c-13.255,0-24,10.745-24,24v96c0,13.255,10.745,24,24,24h319.728l4.328,4.328
				c4.483,4.515,10.589,7.045,16.952,7.024h0.528c6.55-0.116,12.763-2.926,17.176-7.768l3.288-3.584h70c13.255,0,24-10.745,24-24
				v-96c0-13.255-10.745-24-24-24h-46.4l-181.832-176l228.232,0C469.255,146.324,480,135.579,480,122.324z M24,450.324
				c-4.418,0-8-3.582-8-8v-96c0-4.418,3.582-8,8-8h24v40c0,4.418,3.582,8,8,8s8-3.582,8-8v-40h16v24c0,4.418,3.582,8,8,8
				s8-3.582,8-8v-24h16v40c0,4.418,3.582,8,8,8s8-3.582,8-8v-40h16v24c0,4.418,3.582,8,8,8s8-3.582,8-8v-24h16v40
				c0,4.418,3.582,8,8,8s8-3.582,8-8v-40h23.648l112.072,112H24z M456,338.324c4.418,0,8,3.582,8,8v96c0,4.418-3.582,8-8,8h-55.296
				l50.632-55.104c1.087-1.18,2.057-2.464,2.896-3.832c5.835-9.568,4.224-21.907-3.872-29.656l-24.184-23.408H456z M439.2,373.228
				c1.51,1.444,2.389,3.424,2.448,5.512c0.034,1.014-0.132,2.026-0.488,2.976c-0.351,0.988-0.895,1.896-1.6,2.672l-62.968,68.52
				l-0.04,0.056l-5.6,6.128c-1.471,1.614-3.544,2.549-5.728,2.584c-2.172,0.011-4.262-0.827-5.824-2.336l-6.656-6.656L289.6,389.62
				l28.264-28.272c3.07-3.178,2.982-8.242-0.196-11.312c-3.1-2.995-8.016-2.995-11.116,0l-28.24,28.288L267,367.012l16.952-16.96
				c3.128-3.124,3.132-8.192,0.008-11.32c-3.124-3.128-8.192-3.132-11.32-0.008l-16.96,16.96l-11.312-11.32L272.64,316.1
				c3.07-3.178,2.982-8.242-0.196-11.312c-3.1-2.995-8.016-2.995-11.116,0l-28.272,28.272l-11.32-11.32l16.96-16.952
				c3.07-3.178,2.982-8.242-0.196-11.312c-3.1-2.994-8.015-2.994-11.116,0l-16.96,16.96l-11.32-11.312l28.28-28.272
				c3.07-3.178,2.982-8.242-0.196-11.312c-3.1-2.994-8.015-2.994-11.116,0l-28.28,28.272l-11.32-11.312l16.968-16.96
				c3.07-3.178,2.982-8.242-0.196-11.312c-3.1-2.994-8.015-2.994-11.116,0l-16.968,16.96l-11.312-11.312l28.28-28.28
				c3.069-3.178,2.981-8.243-0.197-11.312c-3.1-2.994-8.015-2.994-11.115,0l-28.28,28.28l-11.336-11.32l16.968-16.968
				c3.178-3.069,3.266-8.134,0.197-11.312c-3.069-3.178-8.134-3.266-11.312-0.197c-0.067,0.064-0.132,0.13-0.197,0.197
				l-16.952,16.96l-11.32-11.312l28.288-28.288c2.911-3.323,2.577-8.378-0.746-11.289c-3.011-2.638-7.508-2.644-10.526-0.015
				l-28.288,28.288l-51.04-50.984H204.8L439.2,373.228z M24,130.324c-4.418,0-8-3.582-8-8v-96c0-4.418,3.582-8,8-8h104v24
				c0,4.418,3.582,8,8,8s8-3.582,8-8v-24h16v40c0,4.418,3.582,8,8,8s8-3.582,8-8v-40h16v24c0,4.418,3.582,8,8,8s8-3.582,8-8v-24h16
				v40c0,4.418,3.582,8,8,8s8-3.582,8-8v-40h16v24c0,4.418,3.582,8,8,8s8-3.582,8-8v-24h16v40c0,4.418,3.582,8,8,8s8-3.582,8-8v-40
				h16v24c0,4.418,3.582,8,8,8s8-3.582,8-8v-24h16v40c0,4.418,3.582,8,8,8s8-3.582,8-8v-40h16v24c0,4.418,3.582,8,8,8s8-3.582,8-8
				v-24h16v40c0,4.418,3.582,8,8,8s8-3.582,8-8v-40h24c4.418,0,8,3.582,8,8v96c0,4.418-3.582,8-8,8H24z"/>
			<path d="M64,42.324c-17.673,0-32,14.327-32,32s14.327,32,32,32s32-14.327,32-32S81.673,42.324,64,42.324z M64,90.324
				c-8.837,0-16-7.163-16-16s7.163-16,16-16s16,7.163,16,16S72.837,90.324,64,90.324z"/>
			<path d="M368,418.324c17.673,0,32-14.327,32-32c0-17.673-14.327-32-32-32c-17.673,0-32,14.327-32,32
				C336,403.997,350.327,418.324,368,418.324z M368,370.324c8.837,0,16,7.163,16,16s-7.163,16-16,16s-16-7.163-16-16
				S359.163,370.324,368,370.324z"/>
		</g>
	</g>
</g>
<g>
</g>
<g>
</g>
<g>
</g>
<g>
</g>
<g>
</g>
<g>
</g>
<g>
</g>
<g>
</g>
<g>
</g>
<g>
</g>
<g>
</g>
<g>
</g>
<g>
</g>
<g>
</g>
<g>
</g>
</svg>
